<?xml version="1.0" standalone="no"?>
<!DOCTYPE svg PUBLIC "-//W3C//DTD SVG 20010904//EN"
 "http://www.w3.org/TR/2001/REC-SVG-20010904/DTD/svg10.dtd">
<svg version="1.0" xmlns="http://www.w3.org/2000/svg"
 width="1318.000000pt" height="1318.000000pt" viewBox="0 0 1318.000000 1318.000000"
 preserveAspectRatio="xMidYMid meet">
<metadata>
Created by potrace 1.14, written by Peter Selinger 2001-2017
</metadata>
<g transform="translate(0.000000,1318.000000) scale(0.100000,-0.100000)"
fill="#000000" stroke="none">
<path d="M6131 13153 c-25 -13 -64 -26 -86 -29 -69 -11 -142 -44 -192 -87 -26
-23 -117 -109 -202 -192 -180 -176 -200 -195 -207 -195 -4 0 -22 -16 -43 -35
-54 -53 -83 -75 -116 -92 -46 -24 -163 -150 -174 -188 -5 -18 -8 -58 -6 -89 1
-31 -1 -56 -5 -56 -12 0 -52 -96 -54 -132 -2 -19 -7 -41 -11 -49 -17 -28 -114
-145 -161 -195 -111 -115 -129 -140 -138 -189 -3 -15 -6 -29 -8 -31 -2 -2
-137 -138 -300 -302 -206 -206 -303 -311 -314 -338 -9 -21 -18 -72 -20 -113
-3 -80 -17 -126 -40 -135 -8 -3 -38 -54 -66 -113 -50 -103 -53 -112 -55 -198
-1 -49 -4 -99 -7 -110 -3 -11 -10 -38 -17 -60 -9 -34 -21 -222 -20 -335 1
-175 -3 -231 -19 -261 -9 -15 -15 -68 -16 -144 -2 -66 -6 -140 -9 -165 -7 -55
-13 -131 -19 -225 -5 -81 -14 -122 -33 -151 -8 -12 -13 -26 -12 -30 1 -5 1
-14 0 -20 0 -6 -163 -172 -361 -370 -264 -264 -361 -367 -367 -390 -5 -21 -53
-80 -138 -169 -143 -152 -161 -176 -164 -232 -1 -7 -28 -38 -62 -70 -33 -32
-72 -79 -86 -105 -15 -27 -29 -48 -33 -48 -10 0 -80 -96 -80 -111 0 -17 -26
-48 -138 -165 -170 -177 -189 -201 -196 -236 -5 -26 -30 -59 -99 -129 -108
-111 -148 -156 -171 -191 -15 -24 -28 -83 -27 -130 0 -10 -4 -18 -9 -18 -9 0
-25 -25 -61 -100 -16 -31 -23 -67 -25 -115 -1 -38 -9 -87 -17 -108 -9 -24 -12
-63 -10 -105 8 -148 -1 -383 -17 -412 -6 -12 -14 -34 -16 -48 -5 -31 -25 -74
-38 -83 -27 -20 -36 -114 -23 -243 3 -25 -9 -80 -33 -160 -36 -118 -39 -123
-100 -184 -34 -34 -64 -62 -68 -62 -12 0 -112 -112 -113 -128 -5 -62 -3 -81
14 -110 11 -19 21 -53 22 -75 1 -23 6 -59 10 -79 5 -26 4 -38 -4 -38 -6 0 -11
-5 -11 -10 0 -6 -18 -27 -40 -49 -22 -21 -40 -41 -40 -43 0 -3 -15 -21 -34
-41 -32 -34 -55 -89 -85 -203 -12 -44 -92 -197 -117 -221 -15 -15 -15 -15 -19
-83 -2 -46 -54 -188 -106 -292 -16 -31 -46 -103 -68 -160 -55 -143 -106 -269
-146 -358 -42 -94 -48 -114 -51 -170 -3 -65 -14 -114 -25 -118 -22 -8 -43 -70
-45 -137 -4 -118 -11 -149 -47 -203 -36 -53 -41 -93 -19 -153 7 -18 4 -31 -13
-54 -39 -52 -65 -112 -85 -199 -11 -47 -27 -99 -34 -118 -8 -18 -16 -51 -20
-73 -3 -22 -10 -56 -16 -75 -23 -72 -32 -288 -16 -380 18 -102 15 -128 -15
-170 l-29 -40 0 -541 0 -541 23 -24 22 -24 3910 0 3910 0 50 52 c48 50 51 51
114 55 l66 5 55 -56 54 -56 2188 0 c2152 0 2187 0 2198 19 6 12 10 99 10 213
l0 193 -68 65 c-37 36 -82 77 -100 93 -30 26 -32 31 -32 95 0 47 -6 79 -20
106 -13 27 -19 61 -21 115 0 42 -7 85 -14 96 -19 31 -24 63 -26 162 -1 66 -6
99 -18 116 -9 13 -32 48 -52 78 -20 30 -51 66 -68 82 l-31 27 0 110 c0 61 0
113 0 118 -1 4 -7 16 -14 27 -7 11 -14 51 -15 90 -1 38 -6 76 -11 85 -5 9 -11
36 -15 60 -4 25 -11 68 -16 95 -6 28 -13 68 -15 89 -3 22 -9 47 -14 55 -4 9
-11 36 -14 61 -11 81 -17 105 -32 128 -8 13 -17 38 -18 56 -2 18 -15 66 -30
107 -14 41 -28 92 -31 114 -2 22 -9 55 -14 73 -5 17 -8 32 -5 32 2 0 -5 17
-16 38 -11 20 -22 61 -25 91 -3 29 -7 57 -10 61 -4 7 -11 58 -20 142 -2 20 -6
46 -10 57 -7 25 -3 25 48 7 86 -29 166 4 202 83 10 23 22 41 26 41 4 0 14 6
21 13 7 7 26 20 41 30 98 63 148 125 177 222 9 29 23 47 51 65 73 45 97 96
103 215 3 62 14 95 37 116 40 35 46 74 44 294 0 116 -5 228 -9 250 -15 67 -90
215 -134 261 -19 20 -42 80 -49 127 -3 23 -9 52 -14 65 -14 37 -86 138 -135
189 -25 26 -52 61 -61 77 -15 30 -25 43 -54 76 -9 10 -21 24 -25 32 -5 8 -29
38 -53 66 -41 48 -45 57 -46 109 -1 32 -9 73 -19 90 -9 18 -18 61 -20 95 -4
74 -14 103 -50 141 -15 16 -38 50 -51 75 -48 89 -123 184 -252 320 -24 24 -43
46 -43 49 0 2 -6 11 -12 18 -31 34 -36 44 -43 76 -18 81 -54 139 -145 231 -80
82 -170 196 -170 218 0 4 9 18 21 31 52 59 64 121 35 176 -19 38 -177 203
-194 203 -7 0 -12 4 -12 9 0 13 -68 35 -108 35 -29 0 -49 16 -175 142 -150
151 -210 219 -213 242 -4 21 -33 80 -44 87 -20 12 -60 92 -66 131 -10 64 -10
187 -1 224 5 19 16 39 24 44 23 13 51 84 47 121 -1 18 -14 56 -28 84 -15 29
-28 74 -31 108 -2 32 -7 69 -9 82 -9 40 -38 111 -47 111 -4 0 -10 9 -14 19 -3
11 -23 37 -43 59 -59 63 -127 142 -130 152 -2 5 -28 23 -57 40 -30 17 -69 48
-87 68 -18 20 -50 53 -71 75 -21 21 -55 66 -74 100 -20 34 -58 83 -84 109 -46
44 -47 46 -25 52 32 8 58 51 61 102 3 33 -6 61 -40 131 -33 66 -42 97 -39 123
16 137 9 176 -42 227 -14 14 -33 41 -40 59 -13 31 -13 40 3 82 18 49 25 149
12 173 -11 22 -11 31 -5 189 5 104 2 136 -14 195 -10 38 -22 88 -25 110 -10
72 -14 85 -33 113 -13 17 -21 52 -26 100 -3 40 -11 82 -16 93 -6 10 -8 19 -6
19 11 0 -25 84 -46 107 -33 36 -126 138 -172 186 -21 23 -45 61 -54 85 -10 31
-40 69 -98 129 -46 46 -86 93 -89 103 -3 10 -12 23 -20 30 -9 8 -11 19 -5 41
12 41 -6 109 -29 109 -17 0 -90 82 -111 125 -12 25 -58 82 -101 126 -44 45
-84 91 -91 102 -17 33 -22 38 -243 261 -115 117 -228 224 -250 239 -22 14 -57
41 -79 61 -45 41 -75 53 -136 51 -41 0 -49 4 -90 46 -25 26 -56 54 -70 62 -26
16 -138 48 -180 51 -14 2 -45 8 -70 15 -25 7 -49 14 -55 15 -34 5 -153 77
-193 116 -26 25 -64 58 -85 74 l-38 27 -701 -2 -702 -3 -45 -23z"/>
</g>
</svg>
